<svg width="111" height="29" viewBox="0 0 111 29" fill="none" xmlns="http://www.w3.org/2000/svg">
<path d="M97.0988 0L98.6169 0.186455C107.169 1.61458 112.693 9.84526 110.529 18.1395C109.255 23.0242 105.241 27.0473 100.284 28.4181V17.7194H103.469L103.932 14.0969H100.284V11.1812C100.284 11.0121 100.545 10.5112 100.686 10.3862C100.819 10.2673 101.364 10.0204 101.528 10.0204H104.047V6.73699L102.342 6.62122C100.37 6.55463 98.4428 6.7042 97.2487 8.43967C96.9332 8.89864 96.4625 10.0204 96.4625 10.5573V14.0108L96.3755 14.0958H93.2775V17.7184H96.4625V28.8986C96.2182 29.0379 95.7506 28.9969 95.4466 28.9856C88.4016 28.7203 82.3809 23.2291 81.473 16.4368C81.4279 16.0966 81.4373 15.7237 81.3493 15.3979C81.3755 14.7986 81.3136 14.1839 81.3493 13.5867C81.7791 6.39686 87.8921 0.421062 95.2464 0H97.0999H97.0988Z" fill="white"/>
<path d="M29.6675 13.5819V15.3931C29.5784 15.7189 29.59 16.0918 29.5438 16.432C28.6968 22.671 23.6321 27.7627 17.2832 28.7882L15.7652 28.9747C15.1519 28.9491 14.5229 29.0095 13.9117 28.9747C1.76432 28.2791 -4.44304 13.9589 3.65871 4.95368C12.3968 -4.7584 28.9001 0.773795 29.6675 13.5819ZM8.39521 6.18408C6.0993 6.45147 6.15381 9.70112 8.55351 9.84557C11.5529 10.0259 11.4795 5.82448 8.39521 6.18408ZM23.5273 21.8996V14.9106C23.5273 14.5756 23.2495 13.6741 23.1079 13.3401C22.2892 11.4038 20.0792 10.6016 18.081 11.2317C17.1994 11.5093 16.6846 12.0615 16.1122 12.7326V11.2614H12.5205V21.8996H16.1122V15.8726C16.1122 14.5111 17.431 13.4456 18.7929 13.9332C19.4345 14.1627 19.9356 15.0018 19.9356 15.6462V21.8986H23.5273V21.8996ZM10.5506 21.8996V11.3464L10.4636 11.2614H6.98831L6.90129 11.3464V21.8996H10.5506Z" fill="white"/>
<path d="M70.6754 13.5869V15.3408L70.3462 17.5373C69.0787 23.424 63.9606 28.0864 57.8371 28.8578C57.4943 28.9008 57.1022 28.8824 56.773 28.9787C56.1639 28.9521 55.5244 29.0156 54.9195 28.9787C41.3873 28.1642 35.9851 11.2306 46.758 3.03987C56.1346 -4.08949 69.9876 2.0912 70.6764 13.5869H70.6754ZM52.416 7.26585C50.2753 7.4605 48.5748 9.20622 48.4281 11.2921C48.2824 13.3666 48.5434 15.6 48.4281 17.691C48.5885 19.8393 50.3204 21.543 52.5156 21.7336C54.8745 21.4559 58.7544 22.295 60.8491 21.2746C64.5676 19.4633 62.8829 14.4802 63.2593 11.2378C63.081 9.32198 61.6574 7.72072 59.7294 7.32937C57.4052 7.32117 54.7214 7.05481 52.416 7.2638V7.26585Z" fill="white"/>
<path d="M52.4156 8.73605C54.5291 8.48915 57.0703 8.88255 59.2278 8.72683C60.5477 8.89894 61.5961 9.95108 61.7544 11.2389C61.6118 13.3349 61.9483 15.6779 61.7544 17.7443C61.6349 19.0106 60.4754 20.1457 59.1764 20.2625C57.0315 20.1232 54.6318 20.452 52.5162 20.2625C51.2194 20.1457 50.0578 19.0136 49.9383 17.7443C49.7422 15.6646 50.0767 13.2981 49.9446 11.1887C50.0966 9.98284 51.1701 8.88153 52.4156 8.73605ZM59.6545 9.80868C58.4164 9.8763 58.4678 11.7808 59.8138 11.663C61.0121 11.5585 60.8423 9.74414 59.6545 9.80868ZM55.3122 10.7727C50.9164 11.2593 50.9898 17.8365 55.4128 18.2258C61.0698 18.7237 61.0058 10.1427 55.3122 10.7727Z" fill="white"/>
<path d="M55.3674 12.2419C58.6917 11.7368 59.0796 16.3234 56.3245 16.7414C53.0065 17.2455 52.6091 12.6609 55.3674 12.2419Z" fill="white"/>
</svg>
