<svg width="60" height="60" viewBox="0 0 60 60" fill="none" xmlns="http://www.w3.org/2000/svg">
<path d="M31.7746 59.9919H28.2496L23.6996 59.3169C11.5246 56.7419 1.87463 46.3919 0.274626 34.0169C0.174626 33.2669 0.199626 32.4669 0.0246265 31.7419C0.0746265 30.5669 -0.0503735 29.3919 0.0246265 28.2169C1.44963 2.59192 33.0246 -9.50808 51.2496 8.79192C69.4996 27.0919 57.3746 58.4919 31.7496 59.9919H31.7746ZM28.0996 5.04192C10.3246 6.21692 -0.475373 25.9169 7.92463 41.6919C16.3246 57.4669 37.8496 59.6419 49.1746 46.0169C63.3496 28.9919 50.1496 3.59192 28.1246 5.04192H28.0996Z" fill="white"/>
<path d="M25.4746 40.1427C25.3496 40.0177 25.2496 39.7677 25.1496 39.5927L25.0996 20.7677C25.4746 19.3427 26.4746 19.1427 27.6496 19.8677C31.7996 22.3677 35.7746 26.1927 39.9246 28.7927C40.7246 29.4677 40.7746 30.3677 40.0496 31.1427L27.4996 40.2677C26.9246 40.6677 26.0246 40.6427 25.4996 40.1427H25.4746Z" fill="white"/>
</svg>
