<svg width="94" height="96" viewBox="0 0 94 96" fill="none" xmlns="http://www.w3.org/2000/svg">
<ellipse cx="47" cy="48" rx="46.5" ry="48" fill="#86704D"/>
<path d="M56.9151 30.8175C54.0603 28.7272 50.6754 27.626 47.138 27.626C43.5994 27.626 40.2145 28.7272 37.3605 30.8175C34.5061 32.9083 32.4232 35.7945 31.346 39.1637C29.1672 46.0146 31.6675 53.4443 37.5857 57.6333C38.341 58.1717 38.7914 59.0394 38.7914 59.965V61.3397C38.7914 62.7466 39.9331 63.8883 41.3404 63.8883L54.1008 63.8962C54.5834 63.9527 54.9536 64.3626 54.9536 64.8453C54.9536 65.3275 54.5834 65.7378 54.1008 65.7936L42.916 65.8026C42.9081 65.8026 42.9003 65.8026 42.8841 65.8026C42.8763 65.8026 42.8684 65.8026 42.8519 65.8026C40.8743 65.891 39.3141 67.5067 39.3141 69.4929C39.3141 71.4783 40.8661 73.0952 42.8519 73.1836H42.9003L52.0663 73.272C52.5493 73.3278 52.9191 73.7377 52.9191 74.2207C52.9191 74.7029 52.5493 75.1132 52.0663 75.1686L43.9618 75.1777C43.2056 75.1777 42.5949 75.7888 42.5949 76.5441C42.5949 77.2999 43.2056 77.911 43.9618 77.911L52.139 77.9031C52.1716 77.9031 52.2113 77.9031 52.2435 77.8953H52.2832C54.1896 77.7342 55.6603 76.126 55.6603 74.2286C55.6603 72.3312 54.1975 70.7309 52.3162 70.554C52.3076 70.554 52.2997 70.554 52.2997 70.554C52.2918 70.554 52.2753 70.554 52.2675 70.554C52.2514 70.554 52.2352 70.554 52.2191 70.554C52.2034 70.554 52.1873 70.554 52.1716 70.554L42.9726 70.4656C42.466 70.4412 42.0643 70.0235 42.0643 69.509C42.0643 69.0016 42.4581 68.5839 42.9647 68.5517L54.1727 68.5438C54.2054 68.5438 54.2455 68.5438 54.2781 68.5359H54.3178C56.2073 68.367 57.6709 66.7588 57.6709 64.8614C57.6709 62.964 56.1995 61.3554 54.3178 61.1868C54.3099 61.1868 54.302 61.1868 54.302 61.1868C54.2938 61.1868 54.2859 61.1868 54.2781 61.1868C54.2612 61.1868 54.2455 61.1868 54.2215 61.1868C54.2054 61.1868 54.1896 61.1868 54.1649 61.1868L41.5173 61.1789V59.9885C41.5173 58.1795 40.6326 56.4672 39.1534 55.4215C34.2086 51.9159 32.1178 45.7249 33.9347 40.0079C35.7684 34.2433 41.0673 30.3672 47.1215 30.3672C53.1765 30.3672 58.4749 34.2433 60.3079 40.0079C62.1417 45.7729 60.0591 51.9964 55.1301 55.4942C54.5111 55.928 54.3665 56.7805 54.8086 57.3994C55.0739 57.7779 55.4999 57.9787 55.9259 57.9787C56.1995 57.9787 56.473 57.8982 56.7139 57.7292C59.6005 55.6793 61.7231 52.8245 62.8491 49.4722C63.9746 46.1108 63.9986 42.5569 62.921 39.1881C61.852 35.7945 59.7695 32.9083 56.9151 30.8175Z" fill="white"/>
<path d="M28.1139 43.1113H23.772C23.1531 43.1113 22.6465 43.6179 22.6465 44.2369C22.6465 44.8559 23.1531 45.3624 23.772 45.3624H28.1139C28.7329 45.3624 29.2395 44.8559 29.2395 44.2369C29.2395 43.61 28.7408 43.1113 28.1139 43.1113Z" fill="white"/>
<path d="M47.0976 26.3791C47.7162 26.3791 48.2232 25.8726 48.2232 25.2536V20.9121C48.2232 20.2927 47.7162 19.7861 47.0976 19.7861C46.4783 19.7861 45.9717 20.2927 45.9717 20.9121V25.2536C45.9717 25.8808 46.47 26.3791 47.0976 26.3791Z" fill="white"/>
<path d="M33.6781 31.9433C33.9591 31.9433 34.2488 31.8392 34.4661 31.6219C34.9078 31.188 34.9165 30.4715 34.4822 30.0302L31.4345 26.9023C31.0002 26.4598 30.2849 26.4519 29.8424 26.8866C29.4003 27.3201 29.3924 28.0357 29.8267 28.4782L32.874 31.6061C33.0988 31.8309 33.3885 31.9433 33.6781 31.9433Z" fill="white"/>
<path d="M62.8333 26.9102L59.786 30.0381C59.3513 30.4806 59.3592 31.1959 59.8017 31.6301C60.0186 31.8471 60.3083 31.9512 60.5901 31.9512C60.8797 31.9512 61.1772 31.8392 61.3942 31.614L64.4415 28.4865C64.8754 28.044 64.8675 27.3287 64.4254 26.8944C63.975 26.4519 63.2676 26.4676 62.8333 26.9102Z" fill="white"/>
<path d="M70.4953 43.1113H66.0728C65.4538 43.1113 64.9473 43.6179 64.9473 44.2369C64.9473 44.8559 65.4538 45.3624 66.0728 45.3624H70.4953C71.1143 45.3624 71.6208 44.8559 71.6208 44.2369C71.6208 43.61 71.1143 43.1113 70.4953 43.1113Z" fill="white"/>
</svg>
