<svg width="94" height="96" viewBox="0 0 94 96" fill="none" xmlns="http://www.w3.org/2000/svg">
<ellipse cx="47" cy="48" rx="46.5" ry="48" fill="#86704D"/>
<path d="M71.8889 34.2551C71.601 33.7472 70.9568 33.5697 70.4506 33.8585C69.9443 34.1472 69.7672 34.793 70.0552 35.3008C73.1883 40.8257 72.2424 47.8272 67.755 52.3272L66.9552 53.1292C66.762 52.6208 66.4626 52.1439 66.0548 51.735L55.2172 40.8672C55.926 40.5176 56.5808 40.0511 57.1557 39.4745L59.2343 37.39C59.6462 36.977 59.6462 36.3072 59.2343 35.8942C58.8224 35.4812 58.1546 35.4812 57.7426 35.8942L55.664 37.9787C54.6875 38.9579 53.3892 39.4972 52.0083 39.4972H47.8532C47.5735 39.4972 47.3053 39.6086 47.1073 39.8069L43.9264 42.9968C42.9818 43.9441 41.4448 43.9441 40.5002 42.9968C39.5555 42.0496 39.5555 40.5083 40.5002 39.561L47.7624 32.2787C52.2004 27.8281 59.129 26.8494 64.6107 29.8986C65.1201 30.1817 65.7622 29.9976 66.0448 29.4866C66.3273 28.9758 66.1434 28.3319 65.634 28.0485C62.6104 26.367 59.0481 25.694 55.6026 26.1542C52.3782 26.5848 49.4269 27.9387 47.0076 30.0869C44.0356 27.4448 40.2521 26 36.2464 26C31.9068 26 27.8271 27.6947 24.7584 30.7717C21.6898 33.8488 20 37.9403 20 42.292C20 46.6437 21.6899 50.7349 24.7584 53.8121L25.156 54.2107C25.2251 54.28 25.3019 54.3367 25.383 54.3827C25.4536 55.2978 25.8359 56.193 26.5323 56.8912C27.3074 57.6684 28.325 58.0567 29.3429 58.0567C29.3957 58.0567 29.4486 58.055 29.5015 58.0529C29.4994 58.1064 29.4976 58.1599 29.4976 58.2138C29.4976 59.2784 29.911 60.2793 30.6617 61.0322C31.4368 61.8093 32.4544 62.1978 33.4723 62.1977C33.5251 62.1977 33.5781 62.196 33.6309 62.1939C33.6288 62.2474 33.627 62.3009 33.627 62.3548C33.627 63.4194 34.0404 64.4203 34.7913 65.1731C35.5663 65.9502 36.584 66.3387 37.6018 66.3387C37.6553 66.3387 37.7088 66.337 37.7622 66.3349C37.7194 67.4085 38.1051 68.4964 38.9207 69.3143C39.6715 70.0672 40.6697 70.4818 41.7312 70.4818C42.793 70.4818 43.7912 70.0672 44.5418 69.3143L46.0159 67.836L48.0071 69.8325C48.7578 70.5854 49.7559 71 50.8176 71C51.8792 71 52.8774 70.5854 53.6281 69.8326C54.4535 69.0049 54.8391 67.9006 54.7853 66.8144C54.8516 66.8177 54.918 66.8196 54.9844 66.8196C56.0022 66.8196 57.0202 66.4311 57.7951 65.654C58.6103 64.8365 58.996 63.7495 58.9536 62.6764C59.0069 62.6785 59.0603 62.6803 59.114 62.6803C60.1756 62.6803 61.1738 62.2657 61.9245 61.5129C62.7397 60.6954 63.1254 59.6084 63.083 58.5353C63.1364 58.5374 63.1897 58.5392 63.2434 58.5392C64.3051 58.5392 65.3032 58.1246 66.054 57.3718C66.4352 56.9895 66.7223 56.5478 66.9159 56.0764C67.0186 56.0263 67.1151 55.9595 67.2004 55.8741L69.2459 53.8229C74.4034 48.652 75.4899 40.6053 71.8889 34.2551ZM29.343 55.9431C28.8447 55.9431 28.3763 55.7486 28.024 55.3953C27.6717 55.042 27.4776 54.5723 27.4776 54.0727C27.4776 53.5732 27.6716 53.1034 28.024 52.7501L29.8416 50.9274C30.1939 50.574 30.6624 50.3795 31.1606 50.3795C31.6587 50.3795 32.1272 50.574 32.4795 50.9274C33.2068 51.6567 33.2068 52.8433 32.4795 53.5725L30.6619 55.3954C30.3096 55.7485 29.8413 55.9431 29.343 55.9431ZM32.1537 59.5365C31.8013 59.1832 31.6074 58.7134 31.6074 58.2139C31.6074 57.7143 31.8013 57.2446 32.1537 56.8913L33.9715 55.0685C33.9715 55.0685 33.9715 55.0685 33.9715 55.0684C34.3237 54.7151 34.7921 54.5205 35.2904 54.5205C35.7885 54.5205 36.257 54.715 36.6092 55.0684C37.3366 55.7977 37.3366 56.9843 36.6092 57.7135L34.7916 59.5364C34.0642 60.2656 32.8806 60.2656 32.1537 59.5365ZM36.2831 63.6774C35.9308 63.3242 35.7368 62.8544 35.7368 62.3549C35.7368 61.8552 35.9308 61.3855 36.2831 61.0323L38.1009 59.2094C38.4532 58.8562 38.9215 58.6615 39.4198 58.6615C39.918 58.6615 40.3864 58.856 40.7387 59.2093C41.466 59.9388 41.466 61.1254 40.7387 61.8546L38.9209 63.6774C38.1937 64.4068 37.0104 64.4068 36.2831 63.6774ZM44.8682 65.9958L43.0504 67.8187C42.6982 68.172 42.2298 68.3666 41.7316 68.3666C41.2334 68.3666 40.7649 68.1721 40.4127 67.8187C39.6854 67.0893 39.6854 65.9027 40.4127 65.1735L42.2304 63.3506C42.5827 62.9974 43.0511 62.8027 43.5493 62.8027C44.0474 62.8027 44.5159 62.9972 44.8682 63.3505C45.2206 63.7038 45.4145 64.1736 45.4145 64.6731C45.4146 65.1729 45.2206 65.6425 44.8682 65.9958ZM64.563 55.876C64.2108 56.2293 63.7423 56.4238 63.2442 56.4238C62.7459 56.4238 62.2775 56.2293 61.9253 55.876L57.5349 51.4733C57.5347 51.4731 57.5346 51.473 57.5344 51.4728L53.4053 47.3322C52.9933 46.9191 52.3256 46.9191 51.9135 47.3322C51.5017 47.7452 51.5017 48.415 51.9135 48.828L60.4335 57.3716C61.1608 58.101 61.1608 59.2876 60.4335 60.0168C60.0812 60.3702 59.6128 60.5647 59.1146 60.5647C58.6164 60.5647 58.148 60.3702 57.7957 60.0168L49.2757 51.4731C48.8638 51.0602 48.1961 51.0602 47.784 51.4731C47.3721 51.8861 47.3721 52.5559 47.784 52.9691L51.9127 57.1092C51.913 57.1095 51.9133 57.1099 51.9136 57.1102L56.3041 61.5128C57.0314 62.2422 57.0314 63.4289 56.3042 64.1581C55.5768 64.8875 54.3933 64.8875 53.6663 64.1581L49.2759 59.7554C49.1946 59.6741 49.1034 59.6093 49.0063 59.56L47.754 58.3043C47.3421 57.8914 46.6744 57.8914 46.2623 58.3043C45.8504 58.7173 45.8504 59.3871 46.2623 59.8002L52.1371 65.6913C52.8644 66.4207 52.8644 67.6073 52.1371 68.3365C51.7849 68.6899 51.3164 68.8844 50.8182 68.8844C50.32 68.8844 49.8516 68.6899 49.4993 68.3365L47.2638 66.0949C47.4342 65.6468 47.5242 65.1669 47.5242 64.673C47.5242 63.6084 47.1108 62.6074 46.3601 61.8546C45.6092 61.1018 44.6111 60.6872 43.5495 60.6872C43.4958 60.6872 43.4425 60.689 43.3891 60.6911C43.4314 59.618 43.0458 58.531 42.2306 57.7135C41.4798 56.9607 40.4816 56.5461 39.4201 56.5461C39.3664 56.5461 39.313 56.5479 39.2597 56.55C39.3021 55.4769 38.9164 54.3899 38.1012 53.5724C37.3504 52.8196 36.3522 52.405 35.2907 52.405C35.237 52.405 35.1836 52.4068 35.1303 52.4089C35.1727 51.3358 34.787 50.2488 33.9718 49.4314C32.422 47.8773 29.9002 47.8774 28.3504 49.4314L26.5327 51.2541C26.3035 51.484 26.1091 51.7356 25.9475 52.0019C23.4699 49.363 22.11 45.9324 22.11 42.2918C22.11 38.5051 23.5805 34.945 26.2507 32.2675C28.9208 29.5899 32.4711 28.1153 36.2471 28.1153C39.6786 28.1153 42.9235 29.3333 45.4908 31.5651L39.009 38.065C38.153 38.9235 37.6815 40.0648 37.6815 41.2788C37.6815 42.4928 38.153 43.6341 39.009 44.4926C39.8926 45.3786 41.0533 45.8216 42.2139 45.8216C43.3744 45.8216 44.5351 45.3787 45.4187 44.4926L48.2909 41.6124H52.009C52.316 41.6124 52.6196 41.5914 52.9196 41.5541L64.5637 53.2305C65.2902 53.9602 65.2903 55.1468 64.563 55.876Z" fill="white"/>
<path d="M45.1092 55.6528C44.912 55.455 44.6409 55.3428 44.3634 55.3428C44.085 55.3428 43.8138 55.455 43.6166 55.6528C43.4205 55.8494 43.3086 56.1213 43.3086 56.4005C43.3086 56.6787 43.4205 56.9515 43.6166 57.1484C43.8138 57.3451 44.0848 57.4583 44.3634 57.4583C44.6408 57.4583 44.9119 57.3452 45.1092 57.1484C45.3053 56.9517 45.4171 56.6788 45.4171 56.4005C45.4172 56.1213 45.3054 55.8494 45.1092 55.6528Z" fill="white"/>
<path d="M69.3338 30.7426C69.1365 30.5448 68.8655 30.4326 68.588 30.4326C68.3096 30.4326 68.0385 30.5448 67.8412 30.7426C67.6451 30.9392 67.5332 31.2111 67.5332 31.4904C67.5332 31.7685 67.6451 32.0415 67.8412 32.2382C68.0384 32.4349 68.3095 32.5481 68.588 32.5481C68.8654 32.5481 69.1365 32.435 69.3338 32.2382C69.5299 32.0415 69.6417 31.7686 69.6417 31.4904C69.6417 31.2111 69.5299 30.9392 69.3338 30.7426Z" fill="white"/>
</svg>
