<svg width="94" height="96" viewBox="0 0 94 96" fill="none" xmlns="http://www.w3.org/2000/svg">
<ellipse cx="47" cy="48" rx="46.5" ry="48" fill="#86704D"/>
<path d="M38.32 68.6C38.32 67.0827 38.6882 65.6513 39.34 64.39C37.8137 61.4379 34.7325 59.42 31.18 59.42C26.1101 59.42 22 63.5298 22 68.6V72H38.32M38.32 68.6V72M38.32 68.6C38.32 63.5298 42.43 59.42 47.5 59.42C52.57 59.42 56.68 63.5298 56.68 68.6M38.32 72H56.68M56.68 68.6C56.68 67.0828 56.3119 65.6515 55.66 64.39C57.1863 61.4379 60.2675 59.42 63.82 59.42C68.8899 59.42 73 63.5298 73 68.6V72H56.68M56.68 68.6V72M63.82 26.967L47.4946 32.934L31.18 26.967L47.5 21L63.82 26.967ZM63.82 26.967V38M31.2807 50.2397C33.8151 50.2947 35.8251 52.3939 35.7701 54.9284C35.7151 57.4629 33.6159 59.4729 31.0814 59.4179C28.547 59.3629 26.537 57.2637 26.592 54.7292C26.647 52.1947 28.7462 50.1847 31.2807 50.2397ZM67.0651 51.5845C68.8576 53.377 68.8576 56.2832 67.0651 58.0757C65.2726 59.8682 62.3664 59.8682 60.5739 58.0757C58.7814 56.2832 58.7814 53.377 60.5739 51.5845C62.3664 49.792 65.2726 49.792 67.0651 51.5845ZM47.8263 50.2514C50.355 50.4312 52.2592 52.6267 52.0794 55.1554C51.8997 57.684 49.7041 59.5882 47.1755 59.4085C44.6468 59.2288 42.7426 57.0332 42.9224 54.5045C43.1021 51.9759 45.2977 50.0717 47.8263 50.2514ZM56 29.8255V39.9916L47.4946 43.1L39 39.9933V29.8255L47.5 32.934L56 29.8255Z" stroke="#EEEEEE" stroke-width="2.5" stroke-miterlimit="10" stroke-linecap="round" stroke-linejoin="round"/>
</svg>
