<svg width="94" height="96" viewBox="0 0 94 96" fill="none" xmlns="http://www.w3.org/2000/svg">
<ellipse cx="47" cy="48" rx="46.5" ry="48" fill="#86704D"/>
<path d="M25.3946 40.5879C40.0903 46.2039 54.9674 46.2522 69.6109 40.5865C70.1023 40.3963 70.3466 39.8434 70.1564 39.3516C69.9662 38.8597 69.4132 38.6154 68.9209 38.8056C54.7975 44.2719 40.3814 44.2715 26.0752 38.8042C24.915 38.3772 24.2162 40.1152 25.3946 40.5879Z" fill="white"/>
<path d="M69.6109 56.1241C55.0316 50.4825 40.1548 50.4821 25.3946 56.1227C24.9013 56.3111 24.6552 56.8626 24.8426 57.3554C24.988 57.7358 25.3507 57.9699 25.7349 57.9699C40.1667 52.5664 54.6701 52.3302 68.9209 57.9052C70.0786 58.3405 70.7866 56.6007 69.6109 56.1241Z" fill="white"/>
<path d="M70.9365 47.5449H24.0637C23.5359 47.5449 23.1089 47.9725 23.1089 48.4997C23.1089 49.027 23.5359 49.4545 24.0637 49.4545H70.9365C72.1742 49.4384 72.2056 47.5674 70.9365 47.5449Z" fill="white"/>
<path d="M46.7006 41.4593C47.0483 42.0354 47.9595 42.0368 48.3072 41.4588C48.3072 41.4588 53.4467 33.4587 53.4467 33.4587C53.8598 32.8551 53.3762 31.9646 52.6429 31.9878H50.9953V22.7204C50.9953 22.1931 50.5683 21.7656 50.0406 21.7656H44.9607C44.433 21.7656 44.0059 22.1931 44.0059 22.7204V31.9878H42.3583C41.6273 31.9643 41.1388 32.8559 41.5556 33.4591C41.5555 33.4591 46.7006 41.4593 46.7006 41.4593ZM44.9607 33.8974C45.4884 33.8974 45.9155 33.4698 45.9155 32.9426V23.6752H49.0857V32.9426C49.0857 33.4698 49.5128 33.8974 50.0405 33.8974H50.8946L47.5034 39.1767L44.1075 33.8974H44.9607Z" fill="white"/>
<path d="M48.3067 55.5414C47.9589 54.9661 47.0477 54.9622 46.7001 55.541L41.555 63.5411C41.1402 64.1447 41.6249 65.0356 42.3579 65.0124C42.3578 65.0125 44.0054 65.0125 44.0054 65.0125V74.2798C44.0054 74.8071 44.4324 75.2346 44.9602 75.2346H50.04C50.5678 75.2346 50.9948 74.8071 50.9948 74.2798V65.0125H52.6424C53.3738 65.036 53.8612 64.1447 53.4461 63.5416C53.4461 63.5416 48.3067 55.5414 48.3067 55.5414ZM50.04 63.1029C49.5123 63.1029 49.0852 63.5304 49.0852 64.0577V73.325H45.915V64.0577C45.915 63.5304 45.4879 63.1029 44.9602 63.1029H44.107L47.5029 57.8235L50.8941 63.1029H50.04Z" fill="white"/>
</svg>
