<svg width="94" height="96" viewBox="0 0 94 96" fill="none" xmlns="http://www.w3.org/2000/svg">
<ellipse cx="47" cy="48" rx="46.5" ry="48" fill="#86704D"/>
<g clip-path="url(#clip0_2484_2946)">
<path d="M40.3745 39.5188C35.699 39.5188 31.8958 43.3241 31.8958 48.0006C31.8958 52.676 35.699 56.4792 40.3745 56.4792C45.0509 56.4792 48.8563 52.676 48.8563 48.0006C48.8563 43.3241 45.052 39.5188 40.3745 39.5188ZM40.3745 54.7938C36.6293 54.7938 33.5823 51.7468 33.5823 48.0016C33.5823 44.2543 36.6293 41.2063 40.3745 41.2063C44.1218 41.2063 47.1698 44.2543 47.1698 48.0016C47.1709 51.7468 44.1218 54.7938 40.3745 54.7938ZM71.6913 49.6628H68.5641V49.2356C68.5641 47.9426 68.0579 46.7244 67.1393 45.8058C66.2227 44.8893 65.0056 44.3841 63.7115 44.3841H60.2574C59.9737 44.0234 59.5845 43.7491 59.1352 43.6036L56.2886 42.6797C56.083 42.6132 55.9532 42.4877 55.8773 42.2821C55.7159 41.8486 55.5535 41.4563 55.3816 41.0861C55.2898 40.8867 55.293 40.7043 55.39 40.5134L56.7506 37.845C57.2178 36.9243 57.0491 35.859 56.3203 35.1302L53.2469 32.0569C52.5181 31.3281 51.4529 31.1593 50.5311 31.6266L47.8659 32.9861C47.6718 33.0841 47.4915 33.0884 47.2932 32.9955C46.9051 32.8173 46.5022 32.6507 46.094 32.4988C45.8905 32.4239 45.765 32.2931 45.6985 32.0875L44.7746 29.2419C44.4561 28.2589 43.5828 27.624 42.5492 27.624H38.2018C37.1861 27.624 36.2928 28.2737 35.9806 29.2409L35.0536 32.0885C34.9871 32.2942 34.8616 32.425 34.6602 32.4998C34.2646 32.6454 33.8607 32.8131 33.4578 32.9987C33.2627 33.0894 33.0823 33.0862 32.8893 32.9882L30.2199 31.6276C29.315 31.1657 28.2223 31.3386 27.5041 32.0579L24.4297 35.1292C23.7009 35.858 23.5321 36.9232 23.9994 37.845L25.3599 40.5123C25.458 40.7043 25.4612 40.8846 25.3684 41.0829C25.1901 41.47 25.0235 41.8729 24.8716 42.2821C24.7967 42.4856 24.6659 42.6122 24.4634 42.6776L21.6137 43.6015C20.6339 43.9221 20 44.7943 20 45.8279V50.1754C20 51.19 20.6486 52.0833 21.6137 52.3976L24.4613 53.3236C24.6659 53.39 24.7967 53.5155 24.8705 53.717C25.0161 54.1114 25.1785 54.5038 25.3694 54.9225C25.4601 55.1166 25.457 55.2959 25.3589 55.4878L23.9983 58.1572C23.5364 59.0632 23.7093 60.1548 24.4286 60.8741L27.502 63.9475C28.2213 64.6668 29.3129 64.8397 30.2178 64.3778L32.8883 63.0172C33.0802 62.9191 33.2585 62.916 33.4589 63.0098C33.8639 63.1944 34.2678 63.3621 34.6623 63.5077C34.8584 63.5794 34.9861 63.7133 35.0525 63.9148L35.9796 66.7645C36.2939 67.7296 37.1861 68.3782 38.2018 68.3782H42.5492C43.5818 68.3782 44.455 67.7443 44.7746 66.7635L45.6975 63.9158C45.765 63.7102 45.8894 63.5804 46.0961 63.5056C46.4874 63.36 46.8893 63.1934 47.2964 63.0077C47.4904 62.917 47.6718 62.9213 47.8638 63.0183L48.8446 63.5193V66.0737C48.8446 67.3446 49.8782 68.3793 51.1502 68.3793H71.6923C72.9654 68.3793 74 67.3457 74 66.0737V51.9683C74 50.6974 72.9643 49.6628 71.6913 49.6628ZM71.7113 51.3503L69.5281 55.2305C68.8584 56.417 67.6909 57.0983 66.3282 57.0983H64.0279C63.9889 56.5467 63.5291 56.109 62.9669 56.109H59.8756C59.3135 56.109 58.8536 56.5467 58.8146 57.0983H56.5418C55.1854 57.0983 54.0232 56.4223 53.3524 55.2431L51.1375 51.3492C51.1407 51.3492 51.1449 51.3482 51.1481 51.3482H59.8714H59.8735H59.8756H71.6902C71.6987 51.3492 71.705 51.3503 71.7113 51.3503ZM60.4989 57.7955H62.3468V58.0918H60.4989V57.7955ZM63.7126 48.8021C63.8254 48.8021 63.932 48.8464 64.0121 48.9277L64.0195 48.935C64.1007 49.0152 64.145 49.1217 64.145 49.2346V49.6617H60.7521V48.8011H63.7126V48.8021ZM59.0667 49.6628H58.7018V49.2356C58.7018 49.0816 58.7809 48.9793 58.8283 48.9319C58.8779 48.8823 58.957 48.8254 59.0667 48.8074V49.6628ZM65.9475 46.9976C66.5476 47.5977 66.8787 48.3929 66.8787 49.2356V49.6628H65.8325V49.2356C65.8325 48.6693 65.611 48.1388 65.2081 47.739C64.8095 47.3372 64.2779 47.1157 63.7126 47.1157H59.1321C58.5699 47.1157 58.0384 47.3372 57.6365 47.739C57.2368 48.1388 57.0153 48.6703 57.0153 49.2346V49.6617H55.9659V49.2346C55.9659 48.3919 56.296 47.5966 56.8961 46.9976C57.4973 46.3985 58.2915 46.0684 59.1321 46.0684H59.787H59.7955H63.7126C64.5553 46.0695 65.3484 46.3996 65.9475 46.9976ZM48.6284 61.5132C47.9745 61.181 47.2479 61.1684 46.5908 61.4742C46.2259 61.6409 45.8609 61.7917 45.5139 61.9214C44.8263 62.1703 44.3221 62.6924 44.0933 63.3927L43.1694 66.2414C43.0797 66.5188 42.8414 66.6907 42.5482 66.6907H38.2007C37.9096 66.6907 37.6723 66.5188 37.5827 66.2414L36.6556 63.3916C36.4278 62.6945 35.9247 62.1724 35.2434 61.9235C34.8869 61.7917 34.5315 61.6451 34.1666 61.4784C33.5032 61.1673 32.7765 61.181 32.1226 61.5143L29.4521 62.8748C29.1916 63.0077 28.9016 62.9613 28.6938 62.7546L25.6204 59.6813C25.4137 59.4745 25.3673 59.1834 25.5002 58.9229L26.8597 56.2535C27.193 55.6007 27.2067 54.875 26.8998 54.2169C26.7289 53.8414 26.5823 53.4871 26.4505 53.1306C26.1963 52.4471 25.6753 51.9462 24.9823 51.7194L22.1336 50.7923C21.8562 50.7027 21.6843 50.4654 21.6843 50.1743V45.8269C21.6843 45.5337 21.8562 45.2953 22.1326 45.2057L24.9834 44.2818C25.6763 44.055 26.1984 43.553 26.4505 42.8685C26.5876 42.5004 26.7384 42.1365 26.8966 41.7916C27.2067 41.1261 27.193 40.3995 26.8597 39.7466L25.5002 37.0814C25.3652 36.8156 25.4095 36.5319 25.6194 36.322L28.6927 33.2487C28.8995 33.042 29.1905 32.9955 29.4511 33.1284L32.1205 34.4879C32.7744 34.8223 33.5011 34.8349 34.1623 34.527C34.523 34.3614 34.8859 34.2105 35.2434 34.0787C35.9279 33.8245 36.4289 33.3014 36.6546 32.6074L37.5816 29.7598C37.6713 29.4813 37.9086 29.3084 38.1997 29.3084H42.5471C42.8403 29.3084 43.0776 29.4813 43.1683 29.7598L44.0922 32.6064C44.3179 33.3025 44.821 33.8245 45.5066 34.0777C45.8736 34.2148 46.2375 34.3656 46.5845 34.5238C47.2479 34.8328 47.9735 34.8191 48.6295 34.4869L51.2947 33.1284C51.5605 32.9934 51.8442 33.0377 52.0541 33.2476L55.1274 36.321C55.3373 36.5309 55.3816 36.8146 55.2477 37.0782L53.8871 39.7445C53.5559 40.3931 53.5422 41.1188 53.8491 41.7895C54.0042 42.1239 54.1508 42.4761 54.2953 42.8653C54.5484 43.553 55.0715 44.055 55.7676 44.2807L57.2495 44.7616C56.681 45.0021 56.1557 45.3523 55.7033 45.8037C54.7846 46.7223 54.2784 47.9405 54.2784 49.2335V49.6607H51.1481C49.8772 49.6607 48.8425 50.6943 48.8425 51.9662V61.6208L48.6284 61.5132ZM71.6913 66.6897H51.1491C50.8074 66.6897 50.53 66.4123 50.53 66.0705V53.6917L51.8874 56.0784C52.8662 57.7986 54.5632 58.7858 56.5428 58.7858H58.8157C58.8547 59.3395 59.3145 59.7783 59.8767 59.7783H62.968C63.5301 59.7783 63.99 59.3395 64.029 58.7858H66.3293C68.3184 58.7858 70.0196 57.7923 70.9984 56.0605L72.3146 53.7212V66.0716C72.3136 66.4059 72.0288 66.6897 71.6913 66.6897Z" fill="white"/>
</g>
<defs>
<clipPath id="clip0_2484_2946">
<rect width="54" height="54" fill="white" transform="translate(20 21)"/>
</clipPath>
</defs>
</svg>
