<svg width="94" height="96" viewBox="0 0 94 96" fill="none" xmlns="http://www.w3.org/2000/svg">
<ellipse cx="47" cy="48" rx="46.5" ry="48" fill="#86704D"/>
<g clip-path="url(#clip0_2484_2928)">
<path d="M32.508 35.0692L31.9905 38.1659C31.9668 38.3232 31.9859 38.4839 32.0456 38.6313C32.1053 38.7788 32.2035 38.9075 32.3299 39.004C32.4603 39.0938 32.613 39.1461 32.7712 39.1549C32.9294 39.1638 33.0869 39.129 33.2266 39.0543L36.009 37.5876L38.7788 39.0543C38.9186 39.1274 39.0756 39.1614 39.2331 39.1525C39.3906 39.1437 39.5428 39.0923 39.6735 39.004C39.8002 38.9078 39.8987 38.7791 39.9584 38.6316C40.0182 38.4841 40.037 38.3232 40.0129 38.1659L39.4744 35.0692L41.7163 32.8777C41.8354 32.7682 41.9207 32.627 41.9623 32.4707C42.0038 32.3143 41.9998 32.1494 41.9507 31.9953C41.9016 31.8411 41.8094 31.7042 41.6851 31.6007C41.5608 31.4972 41.4095 31.4314 41.2491 31.411L38.1377 30.9648L36.7528 28.1677C36.4658 27.5873 35.5187 27.5873 35.2296 28.1677L33.8447 30.9648L30.7333 31.4173C30.5781 31.4429 30.4327 31.5102 30.3127 31.6121C30.1928 31.7139 30.1028 31.8465 30.0524 31.9956C30.0006 32.1474 29.9928 32.3108 30.0299 32.4669C30.0669 32.6229 30.1474 32.7654 30.2619 32.8777L32.508 35.0692ZM34.5256 32.6011C34.6627 32.5764 34.792 32.5199 34.9034 32.4362C35.0147 32.3525 35.1049 32.244 35.1667 32.1192L36.0048 30.4598C37.2116 32.8986 36.6334 32.4649 39.3152 32.8756C37.3541 34.7466 37.6013 34.0971 38.0434 36.7537C35.6843 35.4966 36.3044 35.4966 33.9515 36.7537C34.3936 34.0761 34.6513 34.7696 32.6944 32.8756L34.5256 32.6011Z" fill="white"/>
<path d="M27.7621 46.3661C28.3529 46.7285 29.1344 46.1335 28.9962 45.4882L28.4661 42.3894L30.7079 40.2062C30.823 40.095 30.9046 39.9538 30.9437 39.7986C30.9828 39.6435 30.9778 39.4805 30.9292 39.328C30.8807 39.1755 30.7905 39.0396 30.6688 38.9357C30.5472 38.8317 30.3989 38.7638 30.2407 38.7396L27.1315 38.3206L25.7465 35.4963C25.6677 35.3643 25.556 35.2551 25.4223 35.1792C25.2887 35.1034 25.1376 35.0635 24.9839 35.0635C24.8302 35.0635 24.6791 35.1034 24.5454 35.1792C24.4118 35.2551 24.3001 35.3643 24.2212 35.4963L22.8363 38.3164L19.7271 38.7354C19.5705 38.7607 19.4236 38.8278 19.3019 38.9296C19.1803 39.0313 19.0883 39.164 19.0357 39.3137C18.9904 39.4662 18.9859 39.6279 19.0227 39.7827C19.0594 39.9375 19.1362 40.0799 19.2452 40.1957L21.5143 42.3978L20.9758 45.4966C20.9499 45.654 20.9678 45.8155 21.0277 45.9633C21.0876 46.1112 21.1871 46.2397 21.3152 46.3346C21.4457 46.4227 21.5976 46.4737 21.7548 46.4822C21.912 46.4907 22.0686 46.4563 22.2078 46.3828L24.9776 44.9162L27.7621 46.3661ZM22.9432 44.076C23.3999 41.3691 23.6136 42.0982 21.6735 40.1727C24.3826 39.8019 23.7854 40.1957 24.9839 37.7549C26.2117 40.1999 25.5873 39.7977 28.3089 40.1727C26.3479 42.0961 26.5867 41.3753 27.0372 44.076C24.6089 42.8042 25.3568 42.8042 22.9369 44.0844L22.9432 44.076Z" fill="white"/>
<path d="M43.5138 27.7398L42.9837 30.8365C42.9551 30.993 42.9715 31.1544 43.0312 31.3019C43.0909 31.4493 43.1913 31.5768 43.3208 31.6693C43.4502 31.7618 43.6033 31.8156 43.7621 31.8243C43.921 31.833 44.079 31.7963 44.2178 31.7186L47.0002 30.2519L49.7721 31.7186C49.9115 31.7918 50.0682 31.8258 50.2253 31.8169C50.3825 31.8081 50.5344 31.7567 50.6647 31.6683C50.7958 31.5759 50.8977 31.4479 50.9583 31.2993C51.0188 31.1508 51.0354 30.9879 51.0062 30.8302L50.4782 27.7398L52.72 25.5483C52.8362 25.4374 52.919 25.2962 52.959 25.1406C52.999 24.9851 52.9946 24.8215 52.9463 24.6683C52.8996 24.5173 52.8088 24.3838 52.6856 24.2848C52.5624 24.1859 52.4124 24.1261 52.2549 24.1131L49.1561 23.6333L47.7586 20.8383C47.4821 20.2349 46.5246 20.2349 46.2355 20.8383L44.8484 23.6333L41.7392 24.1131C41.584 24.1287 41.4369 24.1897 41.3162 24.2885C41.1954 24.3872 41.1065 24.5193 41.0604 24.6683C41.0092 24.8199 41.0018 24.9827 41.0388 25.1384C41.0759 25.294 41.1559 25.436 41.2699 25.5483L43.5138 27.7398ZM45.5399 25.2717C45.6741 25.2445 45.8004 25.1872 45.9093 25.1041C46.0182 25.021 46.1068 24.9142 46.1684 24.7919L47.0065 23.1304C48.2217 25.5671 47.6246 25.1481 50.3211 25.5252C48.383 27.4381 48.5925 26.7404 49.0472 29.4264C46.6901 28.1693 47.3061 28.1693 44.9553 29.4264C45.4058 26.7258 45.6425 27.4444 43.6982 25.5252L45.5399 25.2717Z" fill="white"/>
<path d="M52.0639 31.9956C52.0131 32.1475 52.0058 32.3106 52.0428 32.4665C52.0798 32.6224 52.1597 32.7648 52.2734 32.8777L54.5278 35.0692L53.9893 38.1659C53.9681 38.323 53.9883 38.483 54.0478 38.63C54.1073 38.777 54.2042 38.9059 54.3288 39.004C54.4594 39.0923 54.6116 39.1437 54.7691 39.1525C54.9267 39.1614 55.0836 39.1274 55.2234 39.0543L58.0058 37.5876L60.7756 39.0543C60.9176 39.1289 61.0771 39.1637 61.2372 39.1548C61.3974 39.146 61.5521 39.0938 61.6849 39.004C61.8103 38.9071 61.9069 38.7779 61.9645 38.6302C62.0221 38.4826 62.0384 38.3221 62.0118 38.1659L61.4838 35.0692L63.7382 32.8777C63.8499 32.7635 63.9284 32.6211 63.9653 32.4657C64.0022 32.3103 63.9961 32.1478 63.9477 31.9956C63.8964 31.8448 63.8045 31.7111 63.6822 31.6091C63.5598 31.5071 63.4118 31.4407 63.2542 31.4173L60.1555 30.9648L58.758 28.1677C58.4814 27.5873 57.5239 27.5873 57.2348 28.1677L55.8499 30.9648L52.7385 31.4173C52.5844 31.4439 52.4403 31.5117 52.3215 31.6135C52.2028 31.7153 52.1137 31.8473 52.0639 31.9956ZM56.5496 32.6011C56.6848 32.5763 56.8122 32.52 56.9215 32.4366C57.0307 32.3532 57.1187 32.2452 57.1782 32.1213L58.0163 30.4619C59.2482 32.9007 58.5987 32.4649 61.3225 32.8777C59.353 34.778 59.6317 34.074 60.0507 36.7558C57.6915 35.4987 58.3117 35.4987 55.9588 36.7558C56.3988 34.0656 56.667 34.7801 54.7017 32.8777L56.5496 32.6011Z" fill="white"/>
<path d="M74.9583 39.3244C74.9083 39.1754 74.8187 39.0429 74.6991 38.9411C74.5795 38.8392 74.4345 38.7718 74.2795 38.7461L71.1702 38.3271L69.7728 35.5069C69.4941 34.9287 68.5366 34.9287 68.26 35.5069L66.8625 38.3271L63.7533 38.7461C63.598 38.7716 63.4526 38.839 63.3327 38.9408C63.2127 39.0427 63.1227 39.1753 63.0724 39.3244C63.0242 39.4766 63.0182 39.639 63.0551 39.7944C63.092 39.9497 63.1704 40.0921 63.2819 40.2064L65.5363 42.398L65.0062 45.4968C64.9786 45.6532 64.9947 45.8142 65.0528 45.9621C65.1108 46.11 65.2085 46.2389 65.3352 46.3348C65.4651 46.4251 65.6176 46.4774 65.7756 46.4859C65.9336 46.4944 66.0909 46.4588 66.2298 46.383L69.0122 44.9164L71.782 46.383C71.9235 46.4565 72.082 46.4909 72.2412 46.4824C72.4003 46.4739 72.5543 46.423 72.6872 46.3348C72.814 46.2392 72.9117 46.1101 72.9694 45.9621C73.0271 45.8141 73.0425 45.653 73.014 45.4968L72.486 42.398L74.7446 40.2064C74.8582 40.0935 74.9383 39.9513 74.976 39.7956C75.0138 39.6399 75.0076 39.4768 74.9583 39.3244ZM70.9921 41.4908C70.8938 41.588 70.8205 41.7076 70.7786 41.8393C70.7366 41.971 70.7272 42.111 70.7512 42.2471L71.0571 44.0846C68.6393 42.8003 69.381 42.8275 66.9631 44.0846C67.4157 41.3839 67.6482 42.1047 65.706 40.1813C68.4297 39.8084 67.7907 40.2002 69.0206 37.7635C70.2526 40.2106 69.5989 39.8063 72.331 40.1813L70.9921 41.4908Z" fill="white"/>
<path d="M68.26 49.9276L63.967 52.1464L58.6892 42.8773C58.6157 42.7562 58.5137 42.6549 58.3921 42.5822C58.2705 42.5095 58.133 42.4676 57.9915 42.4601C57.8501 42.4527 57.7089 42.48 57.5804 42.5395C57.4518 42.5991 57.3398 42.6891 57.254 42.8019L53.4827 48.1152C45.1187 31.4753 48.8984 31.4816 40.5512 48.0922L36.7401 42.804C36.6557 42.6912 36.5448 42.6009 36.4172 42.5412C36.2896 42.4815 36.1493 42.4542 36.0086 42.4616C35.868 42.4691 35.7313 42.5111 35.6107 42.584C35.4902 42.6568 35.3895 42.7583 35.3175 42.8794L30.0397 52.1694L25.7467 49.9276C25.601 49.8653 25.4423 49.8398 25.2844 49.8533C25.1266 49.8668 24.9745 49.9189 24.8416 50.0051C24.7149 50.1048 24.6184 50.2377 24.5629 50.389C24.5074 50.5403 24.4951 50.7041 24.5273 50.862L28.5291 69.8506C25.5309 70.9799 26.195 75.5726 29.5243 75.6166H64.4824C67.7111 75.5935 68.5575 70.9862 65.465 69.8506L69.4668 50.862C69.647 50.1958 68.8781 49.6196 68.26 49.9276ZM54.3187 49.827L57.8805 44.8677L62.4668 52.9279L57.0906 55.7207L54.2956 49.8542C54.2956 49.8542 54.3061 49.8521 54.3187 49.8249V49.827ZM36.1367 44.8656L39.6985 49.8019C39.6985 49.8249 39.7111 49.8249 39.7111 49.8249L36.9161 55.7207L31.5378 52.9488L36.1367 44.8656ZM64.4824 73.9279H29.5243C29.3555 73.9225 29.1895 73.8836 29.0358 73.8135C28.8822 73.7434 28.7441 73.6434 28.6294 73.5194C28.5148 73.3954 28.426 73.2499 28.3681 73.0912C28.3102 72.9326 28.2845 72.764 28.2923 72.5953C28.292 72.4333 28.3237 72.2727 28.3855 72.1229C28.4472 71.9731 28.5379 71.8369 28.6523 71.7221C28.7667 71.6073 28.9026 71.5162 29.0522 71.4539C29.2018 71.3916 29.3622 71.3594 29.5243 71.3592H64.4824C66.0621 71.3655 66.1418 73.8902 64.4824 73.9279ZM63.7763 69.6726H30.2304L26.5533 52.27L36.9161 57.6357C37.0165 57.6876 37.1264 57.7186 37.2391 57.7268C37.3518 57.7351 37.465 57.7205 37.5719 57.6839C37.6836 57.6486 37.7865 57.5897 37.8736 57.5113C37.9607 57.4328 38.03 57.3367 38.0768 57.2293L47.0023 38.4418L55.9298 57.2293C55.9742 57.3361 56.0412 57.4321 56.1262 57.5106C56.2112 57.5891 56.3122 57.6482 56.4222 57.6839C56.6426 57.7571 56.883 57.7398 57.0906 57.6357L67.4408 52.27L63.7763 69.6726Z" fill="white"/>
</g>
<defs>
<clipPath id="clip0_2484_2928">
<rect width="56" height="56" fill="white" transform="translate(19 20)"/>
</clipPath>
</defs>
</svg>
